<?xml version="1.0" encoding="UTF-8"?>
<svg xmlns="http://www.w3.org/2000/svg" viewBox="0 0 1200 630" width="1200" height="630">
  <defs>
    <linearGradient id="bg" x1="0%" y1="0%" x2="100%" y2="100%">
      <stop offset="0%" style="stop-color:#0d0d2b;stop-opacity:1"/>
      <stop offset="50%" style="stop-color:#1a1040;stop-opacity:1"/>
      <stop offset="100%" style="stop-color:#0a1628;stop-opacity:1"/>
    </linearGradient>
    <linearGradient id="titleGrad" x1="0%" y1="0%" x2="100%" y2="0%">
      <stop offset="0%" style="stop-color:#e0e0e0;stop-opacity:1"/>
      <stop offset="100%" style="stop-color:#ffffff;stop-opacity:1"/>
    </linearGradient>
    <filter id="glow">
      <feGaussianBlur stdDeviation="3" result="coloredBlur"/>
      <feMerge>
        <feMergeNode in="coloredBlur"/>
        <feMergeNode in="SourceGraphic"/>
      </feMerge>
    </filter>
    <filter id="shadow">
      <feDropShadow dx="2" dy="2" stdDeviation="3" flood-color="#000000" flood-opacity="0.5"/>
    </filter>
  </defs>
  
  <!-- Background gradient -->
  <rect width="1200" height="630" fill="url(#bg)"/>
  
  <!-- Grid -->
  <line x1="0" y1="0" x2="0" y2="630" stroke="#1a237e" stroke-width="0.5" opacity="0.3"/>
<line x1="40" y1="0" x2="40" y2="630" stroke="#1a237e" stroke-width="0.5" opacity="0.3"/>
<line x1="80" y1="0" x2="80" y2="630" stroke="#1a237e" stroke-width="0.5" opacity="0.3"/>
<line x1="120" y1="0" x2="120" y2="630" stroke="#1a237e" stroke-width="0.5" opacity="0.3"/>
<line x1="160" y1="0" x2="160" y2="630" stroke="#1a237e" stroke-width="0.5" opacity="0.3"/>
<line x1="200" y1="0" x2="200" y2="630" stroke="#1a237e" stroke-width="0.5" opacity="0.3"/>
<line x1="240" y1="0" x2="240" y2="630" stroke="#1a237e" stroke-width="0.5" opacity="0.3"/>
<line x1="280" y1="0" x2="280" y2="630" stroke="#1a237e" stroke-width="0.5" opacity="0.3"/>
<line x1="320" y1="0" x2="320" y2="630" stroke="#1a237e" stroke-width="0.5" opacity="0.3"/>
<line x1="360" y1="0" x2="360" y2="630" stroke="#1a237e" stroke-width="0.5" opacity="0.3"/>
<line x1="400" y1="0" x2="400" y2="630" stroke="#1a237e" stroke-width="0.5" opacity="0.3"/>
<line x1="440" y1="0" x2="440" y2="630" stroke="#1a237e" stroke-width="0.5" opacity="0.3"/>
<line x1="480" y1="0" x2="480" y2="630" stroke="#1a237e" stroke-width="0.5" opacity="0.3"/>
<line x1="520" y1="0" x2="520" y2="630" stroke="#1a237e" stroke-width="0.5" opacity="0.3"/>
<line x1="560" y1="0" x2="560" y2="630" stroke="#1a237e" stroke-width="0.5" opacity="0.3"/>
<line x1="600" y1="0" x2="600" y2="630" stroke="#1a237e" stroke-width="0.5" opacity="0.3"/>
<line x1="640" y1="0" x2="640" y2="630" stroke="#1a237e" stroke-width="0.5" opacity="0.3"/>
<line x1="680" y1="0" x2="680" y2="630" stroke="#1a237e" stroke-width="0.5" opacity="0.3"/>
<line x1="720" y1="0" x2="720" y2="630" stroke="#1a237e" stroke-width="0.5" opacity="0.3"/>
<line x1="760" y1="0" x2="760" y2="630" stroke="#1a237e" stroke-width="0.5" opacity="0.3"/>
<line x1="800" y1="0" x2="800" y2="630" stroke="#1a237e" stroke-width="0.5" opacity="0.3"/>
<line x1="840" y1="0" x2="840" y2="630" stroke="#1a237e" stroke-width="0.5" opacity="0.3"/>
<line x1="880" y1="0" x2="880" y2="630" stroke="#1a237e" stroke-width="0.5" opacity="0.3"/>
<line x1="920" y1="0" x2="920" y2="630" stroke="#1a237e" stroke-width="0.5" opacity="0.3"/>
<line x1="960" y1="0" x2="960" y2="630" stroke="#1a237e" stroke-width="0.5" opacity="0.3"/>
<line x1="1000" y1="0" x2="1000" y2="630" stroke="#1a237e" stroke-width="0.5" opacity="0.3"/>
<line x1="1040" y1="0" x2="1040" y2="630" stroke="#1a237e" stroke-width="0.5" opacity="0.3"/>
<line x1="1080" y1="0" x2="1080" y2="630" stroke="#1a237e" stroke-width="0.5" opacity="0.3"/>
<line x1="1120" y1="0" x2="1120" y2="630" stroke="#1a237e" stroke-width="0.5" opacity="0.3"/>
<line x1="1160" y1="0" x2="1160" y2="630" stroke="#1a237e" stroke-width="0.5" opacity="0.3"/>
<line x1="1200" y1="0" x2="1200" y2="630" stroke="#1a237e" stroke-width="0.5" opacity="0.3"/>
<line x1="0" y1="0" x2="1200" y2="0" stroke="#1a237e" stroke-width="0.5" opacity="0.3"/>
<line x1="0" y1="40" x2="1200" y2="40" stroke="#1a237e" stroke-width="0.5" opacity="0.3"/>
<line x1="0" y1="80" x2="1200" y2="80" stroke="#1a237e" stroke-width="0.5" opacity="0.3"/>
<line x1="0" y1="120" x2="1200" y2="120" stroke="#1a237e" stroke-width="0.5" opacity="0.3"/>
<line x1="0" y1="160" x2="1200" y2="160" stroke="#1a237e" stroke-width="0.5" opacity="0.3"/>
<line x1="0" y1="200" x2="1200" y2="200" stroke="#1a237e" stroke-width="0.5" opacity="0.3"/>
<line x1="0" y1="240" x2="1200" y2="240" stroke="#1a237e" stroke-width="0.5" opacity="0.3"/>
<line x1="0" y1="280" x2="1200" y2="280" stroke="#1a237e" stroke-width="0.5" opacity="0.3"/>
<line x1="0" y1="320" x2="1200" y2="320" stroke="#1a237e" stroke-width="0.5" opacity="0.3"/>
<line x1="0" y1="360" x2="1200" y2="360" stroke="#1a237e" stroke-width="0.5" opacity="0.3"/>
<line x1="0" y1="400" x2="1200" y2="400" stroke="#1a237e" stroke-width="0.5" opacity="0.3"/>
<line x1="0" y1="440" x2="1200" y2="440" stroke="#1a237e" stroke-width="0.5" opacity="0.3"/>
<line x1="0" y1="480" x2="1200" y2="480" stroke="#1a237e" stroke-width="0.5" opacity="0.3"/>
<line x1="0" y1="520" x2="1200" y2="520" stroke="#1a237e" stroke-width="0.5" opacity="0.3"/>
<line x1="0" y1="560" x2="1200" y2="560" stroke="#1a237e" stroke-width="0.5" opacity="0.3"/>
<line x1="0" y1="600" x2="1200" y2="600" stroke="#1a237e" stroke-width="0.5" opacity="0.3"/>

  
  <!-- Diagonal lines -->
  <line x1="-630" y1="0" x2="0" y2="630" stroke="#4a148c" stroke-width="0.5" opacity="0.2"/>
<line x1="-550" y1="0" x2="80" y2="630" stroke="#4a148c" stroke-width="0.5" opacity="0.2"/>
<line x1="-470" y1="0" x2="160" y2="630" stroke="#4a148c" stroke-width="0.5" opacity="0.2"/>
<line x1="-390" y1="0" x2="240" y2="630" stroke="#4a148c" stroke-width="0.5" opacity="0.2"/>
<line x1="-310" y1="0" x2="320" y2="630" stroke="#4a148c" stroke-width="0.5" opacity="0.2"/>
<line x1="-230" y1="0" x2="400" y2="630" stroke="#4a148c" stroke-width="0.5" opacity="0.2"/>
<line x1="-150" y1="0" x2="480" y2="630" stroke="#4a148c" stroke-width="0.5" opacity="0.2"/>
<line x1="-70" y1="0" x2="560" y2="630" stroke="#4a148c" stroke-width="0.5" opacity="0.2"/>
<line x1="10" y1="0" x2="640" y2="630" stroke="#4a148c" stroke-width="0.5" opacity="0.2"/>
<line x1="90" y1="0" x2="720" y2="630" stroke="#4a148c" stroke-width="0.5" opacity="0.2"/>
<line x1="170" y1="0" x2="800" y2="630" stroke="#4a148c" stroke-width="0.5" opacity="0.2"/>
<line x1="250" y1="0" x2="880" y2="630" stroke="#4a148c" stroke-width="0.5" opacity="0.2"/>
<line x1="330" y1="0" x2="960" y2="630" stroke="#4a148c" stroke-width="0.5" opacity="0.2"/>
<line x1="410" y1="0" x2="1040" y2="630" stroke="#4a148c" stroke-width="0.5" opacity="0.2"/>
<line x1="490" y1="0" x2="1120" y2="630" stroke="#4a148c" stroke-width="0.5" opacity="0.2"/>
<line x1="570" y1="0" x2="1200" y2="630" stroke="#4a148c" stroke-width="0.5" opacity="0.2"/>
<line x1="650" y1="0" x2="1280" y2="630" stroke="#4a148c" stroke-width="0.5" opacity="0.2"/>
<line x1="730" y1="0" x2="1360" y2="630" stroke="#4a148c" stroke-width="0.5" opacity="0.2"/>
<line x1="810" y1="0" x2="1440" y2="630" stroke="#4a148c" stroke-width="0.5" opacity="0.2"/>
<line x1="890" y1="0" x2="1520" y2="630" stroke="#4a148c" stroke-width="0.5" opacity="0.2"/>
<line x1="970" y1="0" x2="1600" y2="630" stroke="#4a148c" stroke-width="0.5" opacity="0.2"/>
<line x1="1050" y1="0" x2="1680" y2="630" stroke="#4a148c" stroke-width="0.5" opacity="0.2"/>
<line x1="1130" y1="0" x2="1760" y2="630" stroke="#4a148c" stroke-width="0.5" opacity="0.2"/>

  
  <!-- Circuit traces -->
  <line x1="50" y1="150" x2="1150" y2="150" stroke="#00bcd4" stroke-width="0.8" opacity="0.15"/>
<circle cx="50" cy="150" r="2" fill="#00bcd4" opacity="0.2"/>
<circle cx="110" cy="150" r="2" fill="#00bcd4" opacity="0.2"/>
<circle cx="170" cy="150" r="2" fill="#00bcd4" opacity="0.2"/>
<circle cx="230" cy="150" r="2" fill="#00bcd4" opacity="0.2"/>
<circle cx="290" cy="150" r="2" fill="#00bcd4" opacity="0.2"/>
<circle cx="350" cy="150" r="2" fill="#00bcd4" opacity="0.2"/>
<circle cx="410" cy="150" r="2" fill="#00bcd4" opacity="0.2"/>
<circle cx="470" cy="150" r="2" fill="#00bcd4" opacity="0.2"/>
<circle cx="530" cy="150" r="2" fill="#00bcd4" opacity="0.2"/>
<circle cx="590" cy="150" r="2" fill="#00bcd4" opacity="0.2"/>
<circle cx="650" cy="150" r="2" fill="#00bcd4" opacity="0.2"/>
<circle cx="710" cy="150" r="2" fill="#00bcd4" opacity="0.2"/>
<circle cx="770" cy="150" r="2" fill="#00bcd4" opacity="0.2"/>
<circle cx="830" cy="150" r="2" fill="#00bcd4" opacity="0.2"/>
<circle cx="890" cy="150" r="2" fill="#00bcd4" opacity="0.2"/>
<circle cx="950" cy="150" r="2" fill="#00bcd4" opacity="0.2"/>
<circle cx="1010" cy="150" r="2" fill="#00bcd4" opacity="0.2"/>
<circle cx="1070" cy="150" r="2" fill="#00bcd4" opacity="0.2"/>
<circle cx="1130" cy="150" r="2" fill="#00bcd4" opacity="0.2"/>
<line x1="50" y1="250" x2="1150" y2="250" stroke="#00bcd4" stroke-width="0.8" opacity="0.15"/>
<circle cx="50" cy="250" r="2" fill="#00bcd4" opacity="0.2"/>
<circle cx="110" cy="250" r="2" fill="#00bcd4" opacity="0.2"/>
<circle cx="170" cy="250" r="2" fill="#00bcd4" opacity="0.2"/>
<circle cx="230" cy="250" r="2" fill="#00bcd4" opacity="0.2"/>
<circle cx="290" cy="250" r="2" fill="#00bcd4" opacity="0.2"/>
<circle cx="350" cy="250" r="2" fill="#00bcd4" opacity="0.2"/>
<circle cx="410" cy="250" r="2" fill="#00bcd4" opacity="0.2"/>
<circle cx="470" cy="250" r="2" fill="#00bcd4" opacity="0.2"/>
<circle cx="530" cy="250" r="2" fill="#00bcd4" opacity="0.2"/>
<circle cx="590" cy="250" r="2" fill="#00bcd4" opacity="0.2"/>
<circle cx="650" cy="250" r="2" fill="#00bcd4" opacity="0.2"/>
<circle cx="710" cy="250" r="2" fill="#00bcd4" opacity="0.2"/>
<circle cx="770" cy="250" r="2" fill="#00bcd4" opacity="0.2"/>
<circle cx="830" cy="250" r="2" fill="#00bcd4" opacity="0.2"/>
<circle cx="890" cy="250" r="2" fill="#00bcd4" opacity="0.2"/>
<circle cx="950" cy="250" r="2" fill="#00bcd4" opacity="0.2"/>
<circle cx="1010" cy="250" r="2" fill="#00bcd4" opacity="0.2"/>
<circle cx="1070" cy="250" r="2" fill="#00bcd4" opacity="0.2"/>
<circle cx="1130" cy="250" r="2" fill="#00bcd4" opacity="0.2"/>
<line x1="50" y1="380" x2="1150" y2="380" stroke="#00bcd4" stroke-width="0.8" opacity="0.15"/>
<circle cx="50" cy="380" r="2" fill="#00bcd4" opacity="0.2"/>
<circle cx="110" cy="380" r="2" fill="#00bcd4" opacity="0.2"/>
<circle cx="170" cy="380" r="2" fill="#00bcd4" opacity="0.2"/>
<circle cx="230" cy="380" r="2" fill="#00bcd4" opacity="0.2"/>
<circle cx="290" cy="380" r="2" fill="#00bcd4" opacity="0.2"/>
<circle cx="350" cy="380" r="2" fill="#00bcd4" opacity="0.2"/>
<circle cx="410" cy="380" r="2" fill="#00bcd4" opacity="0.2"/>
<circle cx="470" cy="380" r="2" fill="#00bcd4" opacity="0.2"/>
<circle cx="530" cy="380" r="2" fill="#00bcd4" opacity="0.2"/>
<circle cx="590" cy="380" r="2" fill="#00bcd4" opacity="0.2"/>
<circle cx="650" cy="380" r="2" fill="#00bcd4" opacity="0.2"/>
<circle cx="710" cy="380" r="2" fill="#00bcd4" opacity="0.2"/>
<circle cx="770" cy="380" r="2" fill="#00bcd4" opacity="0.2"/>
<circle cx="830" cy="380" r="2" fill="#00bcd4" opacity="0.2"/>
<circle cx="890" cy="380" r="2" fill="#00bcd4" opacity="0.2"/>
<circle cx="950" cy="380" r="2" fill="#00bcd4" opacity="0.2"/>
<circle cx="1010" cy="380" r="2" fill="#00bcd4" opacity="0.2"/>
<circle cx="1070" cy="380" r="2" fill="#00bcd4" opacity="0.2"/>
<circle cx="1130" cy="380" r="2" fill="#00bcd4" opacity="0.2"/>
<line x1="50" y1="480" x2="1150" y2="480" stroke="#00bcd4" stroke-width="0.8" opacity="0.15"/>
<circle cx="50" cy="480" r="2" fill="#00bcd4" opacity="0.2"/>
<circle cx="110" cy="480" r="2" fill="#00bcd4" opacity="0.2"/>
<circle cx="170" cy="480" r="2" fill="#00bcd4" opacity="0.2"/>
<circle cx="230" cy="480" r="2" fill="#00bcd4" opacity="0.2"/>
<circle cx="290" cy="480" r="2" fill="#00bcd4" opacity="0.2"/>
<circle cx="350" cy="480" r="2" fill="#00bcd4" opacity="0.2"/>
<circle cx="410" cy="480" r="2" fill="#00bcd4" opacity="0.2"/>
<circle cx="470" cy="480" r="2" fill="#00bcd4" opacity="0.2"/>
<circle cx="530" cy="480" r="2" fill="#00bcd4" opacity="0.2"/>
<circle cx="590" cy="480" r="2" fill="#00bcd4" opacity="0.2"/>
<circle cx="650" cy="480" r="2" fill="#00bcd4" opacity="0.2"/>
<circle cx="710" cy="480" r="2" fill="#00bcd4" opacity="0.2"/>
<circle cx="770" cy="480" r="2" fill="#00bcd4" opacity="0.2"/>
<circle cx="830" cy="480" r="2" fill="#00bcd4" opacity="0.2"/>
<circle cx="890" cy="480" r="2" fill="#00bcd4" opacity="0.2"/>
<circle cx="950" cy="480" r="2" fill="#00bcd4" opacity="0.2"/>
<circle cx="1010" cy="480" r="2" fill="#00bcd4" opacity="0.2"/>
<circle cx="1070" cy="480" r="2" fill="#00bcd4" opacity="0.2"/>
<circle cx="1130" cy="480" r="2" fill="#00bcd4" opacity="0.2"/>

  
  <!-- Hexagons -->
  <polygon points="176.0,85.0 176.0,115.0 150.0,130.0 124.0,115.0 124.0,85.0 150.0,70.0" fill="none" stroke="#7c4dff" stroke-width="1" opacity="0.3"/>
<polygon points="1076.0,85.0 1076.0,115.0 1050.0,130.0 1024.0,115.0 1024.0,85.0 1050.0,70.0" fill="none" stroke="#7c4dff" stroke-width="1" opacity="0.3"/>
<polygon points="226.0,515.0 226.0,545.0 200.0,560.0 174.0,545.0 174.0,515.0 200.0,500.0" fill="none" stroke="#7c4dff" stroke-width="1" opacity="0.3"/>
<polygon points="1026.0,515.0 1026.0,545.0 1000.0,560.0 974.0,545.0 974.0,515.0 1000.0,500.0" fill="none" stroke="#7c4dff" stroke-width="1" opacity="0.3"/>
<polygon points="626.0,65.0 626.0,95.0 600.0,110.0 574.0,95.0 574.0,65.0 600.0,50.0" fill="none" stroke="#7c4dff" stroke-width="1" opacity="0.3"/>
<polygon points="626.0,535.0 626.0,565.0 600.0,580.0 574.0,565.0 574.0,535.0 600.0,520.0" fill="none" stroke="#7c4dff" stroke-width="1" opacity="0.3"/>

  
  <!-- Corner brackets -->
  <path d="M 20 60 L 20 20 L 60 20" fill="none" stroke="#00e5ff" stroke-width="2" opacity="0.6"/>
<path d="M 1140 20 L 1180 20 L 1180 60" fill="none" stroke="#00e5ff" stroke-width="2" opacity="0.6"/>
<path d="M 20 570 L 20 610 L 60 610" fill="none" stroke="#00e5ff" stroke-width="2" opacity="0.6"/>
<path d="M 1140 610 L 1180 610 L 1180 570" fill="none" stroke="#00e5ff" stroke-width="2" opacity="0.6"/>

  
  <!-- Crypto icons -->
  <polygon points="80,300 110,270 140,300 110,330" fill="none" stroke="#26a69a" stroke-width="1.5" opacity="0.4"/>
<text x="110" y="308" text-anchor="middle" font-family="monospace" font-size="16" fill="#26a69a" opacity="0.5">₮</text>
<circle cx="1090" cy="300" r="20" fill="none" stroke="#ffd54f" stroke-width="1.5" opacity="0.4"/>
<text x="1090" y="308" text-anchor="middle" font-family="monospace" font-size="18" fill="#ffd54f" opacity="0.5">B</text>

  
  <!-- Title text with shadow -->
  <text x="600" y="280" text-anchor="middle" font-family="DejaVu Sans, Arial, sans-serif" font-size="38" font-weight="bold" fill="url(#titleGrad)" filter="url(#shadow)">BIS Stablecoin Regulation</text>
  <text x="600" y="340" text-anchor="middle" font-family="DejaVu Sans, Arial, sans-serif" font-size="34" font-weight="bold" fill="url(#titleGrad)" filter="url(#shadow)">Domain Infrastructure</text>
  
  <!-- Subtitle -->
  <text x="600" y="410" text-anchor="middle" font-family="DejaVu Sans, Arial, sans-serif" font-size="18" fill="#b0bec5" opacity="0.8">BIS稳定币监管 · 域名支付基础设施 · 政策影响</text>
  
  <!-- Decorative line under title -->
  <line x1="350" y1="360" x2="850" y2="360" stroke="#7c4dff" stroke-width="2" opacity="0.5"/>
  <circle cx="350" cy="360" r="3" fill="#7c4dff" opacity="0.7"/>
  <circle cx="850" cy="360" r="3" fill="#7c4dff" opacity="0.7"/>
  
  <!-- Brand text -->
  <text x="600" y="580" text-anchor="middle" font-family="DejaVu Sans, Arial, sans-serif" font-size="14" fill="#546e7a" opacity="0.6">Web3 Domain Institute · miamioh.edu.pl</text>
</svg>