<svg xmlns="http://www.w3.org/2000/svg" viewBox="0 0 1200 630">
  <defs>
    <linearGradient id="bg" x1="0%" y1="0%" x2="100%" y2="100%">
      <stop offset="0%" style="stop-color:#0a0e27"/>
      <stop offset="50%" style="stop-color:#1a1a4e"/>
      <stop offset="100%" style="stop-color:#0d1b3e"/>
    </linearGradient>
    <linearGradient id="accent" x1="0%" y1="0%" x2="100%" y2="0%">
      <stop offset="0%" style="stop-color:#00d4ff"/>
      <stop offset="100%" style="stop-color:#7b2ff9"/>
    </linearGradient>
  </defs>

  <!-- Background -->
  <rect width="1200" height="630" fill="url(#bg)"/>

  <!-- Grid -->
  <g stroke="#1a3a6a" stroke-width="0.5" opacity="0.3">
    <line x1="0" y1="40" x2="1200" y2="40"/><line x1="0" y1="80" x2="1200" y2="80"/>
    <line x1="0" y1="120" x2="1200" y2="120"/><line x1="0" y1="160" x2="1200" y2="160"/>
    <line x1="0" y1="200" x2="1200" y2="200"/><line x1="0" y1="240" x2="1200" y2="240"/>
    <line x1="0" y1="280" x2="1200" y2="280"/><line x1="0" y1="320" x2="1200" y2="320"/>
    <line x1="0" y1="360" x2="1200" y2="360"/><line x1="0" y1="400" x2="1200" y2="400"/>
    <line x1="0" y1="440" x2="1200" y2="440"/><line x1="0" y1="480" x2="1200" y2="480"/>
    <line x1="0" y1="520" x2="1200" y2="520"/><line x1="0" y1="560" x2="1200" y2="560"/>
    <line x1="40" y1="0" x2="40" y2="630"/><line x1="80" y1="0" x2="80" y2="630"/>
    <line x1="120" y1="0" x2="120" y2="630"/><line x1="160" y1="0" x2="160" y2="630"/>
    <line x1="200" y1="0" x2="200" y2="630"/><line x1="240" y1="0" x2="240" y2="630"/>
    <line x1="280" y1="0" x2="280" y2="630"/><line x1="320" y1="0" x2="320" y2="630"/>
    <line x1="360" y1="0" x2="360" y2="630"/><line x1="400" y1="0" x2="400" y2="630"/>
    <line x1="440" y1="0" x2="440" y2="630"/><line x1="480" y1="0" x2="480" y2="630"/>
    <line x1="520" y1="0" x2="520" y2="630"/><line x1="560" y1="0" x2="560" y2="630"/>
    <line x1="600" y1="0" x2="600" y2="630"/><line x1="640" y1="0" x2="640" y2="630"/>
    <line x1="680" y1="0" x2="680" y2="630"/><line x1="720" y1="0" x2="720" y2="630"/>
    <line x1="760" y1="0" x2="760" y2="630"/><line x1="800" y1="0" x2="800" y2="630"/>
    <line x1="840" y1="0" x2="840" y2="630"/><line x1="880" y1="0" x2="880" y2="630"/>
    <line x1="920" y1="0" x2="920" y2="630"/><line x1="960" y1="0" x2="960" y2="630"/>
    <line x1="1000" y1="0" x2="1000" y2="630"/><line x1="1040" y1="0" x2="1040" y2="630"/>
    <line x1="1080" y1="0" x2="1080" y2="630"/><line x1="1120" y1="0" x2="1120" y2="630"/>
    <line x1="1160" y1="0" x2="1160" y2="630"/>
  </g>

  <!-- Diagonal lines -->
  <g stroke="#2a5aaa" stroke-width="0.8" opacity="0.2">
    <line x1="0" y1="0" x2="600" y2="630"/>
    <line x1="600" y1="0" x2="1200" y2="630"/>
    <line x1="0" y1="200" x2="1200" y2="430"/>
  </g>

  <!-- Circuit board pattern -->
  <g stroke="#00d4ff" stroke-width="1" opacity="0.15">
    <path d="M 100 500 L 200 500 L 200 450 L 300 450"/>
    <path d="M 900 100 L 950 100 L 950 200 L 1050 200"/>
    <path d="M 50 300 L 150 300 L 150 250 L 250 250 L 250 200"/>
    <path d="M 1000 400 L 1100 400 L 1100 350 L 1150 350"/>
    <circle cx="200" cy="500" r="3" fill="#00d4ff"/>
    <circle cx="300" cy="450" r="3" fill="#00d4ff"/>
    <circle cx="950" cy="200" r="3" fill="#00d4ff"/>
    <circle cx="150" cy="300" r="3" fill="#00d4ff"/>
  </g>

  <!-- Hexagons -->
  <g fill="none" stroke="#7b2ff9" stroke-width="1" opacity="0.15">
    <polygon points="1050,80 1080,60 1110,80 1110,110 1080,130 1050,110"/>
    <polygon points="80,480 110,460 140,480 140,510 110,530 80,510"/>
    <polygon points="1100,500 1130,480 1160,500 1160,530 1130,550 1100,530"/>
  </g>

  <!-- Corner accent -->
  <rect x="0" y="0" width="6" height="630" fill="url(#accent)" opacity="0.8"/>
  <rect x="0" y="0" width="1200" height="4" fill="url(#accent)" opacity="0.6"/>

  <!-- Title text with shadow -->
  <text x="600" y="260" font-family="DejaVu Sans, Arial, sans-serif" font-weight="bold" font-size="52" fill="#000" opacity="0.3" text-anchor="middle">USDT脱锚风险</text>
  <text x="600" y="260" font-family="DejaVu Sans, Arial, sans-serif" font-weight="bold" font-size="52" fill="#ffffff" text-anchor="middle">USDT脱锚风险</text>
  <text x="600" y="330" font-family="DejaVu Sans, Arial, sans-serif" font-weight="bold" font-size="52" fill="#000" opacity="0.3" text-anchor="middle">与域名续费稳定性</text>
  <text x="600" y="330" font-family="DejaVu Sans, Arial, sans-serif" font-weight="bold" font-size="52" fill="#ffffff" text-anchor="middle">与域名续费稳定性</text>

  <!-- Subtitle -->
  <text x="600" y="400" font-family="DejaVu Sans, Arial, sans-serif" font-size="22" fill="#88ccff" text-anchor="middle" opacity="0.9">Tether储备审计 | 支付通道风险评估</text>

  <!-- Bottom bar -->
  <rect x="400" y="460" width="400" height="2" fill="url(#accent)" opacity="0.6"/>
  <text x="600" y="500" font-family="DejaVu Sans, Arial, sans-serif" font-size="16" fill="#6699cc" text-anchor="middle" opacity="0.7">Web3 Domain Institute | miamioh.edu.pl</text>
</svg>