<svg viewBox="0 0 1200 630" xmlns="http://www.w3.org/2000/svg">
  <defs>
    <linearGradient id="bg" x1="0%" y1="0%" x2="100%" y2="100%">
      <stop offset="0%" stop-color="#0a0e27"/>
      <stop offset="100%" stop-color="#1a1a3e"/>
    </linearGradient>
    <linearGradient id="accent" x1="0%" y1="0%" x2="100%" y2="0%">
      <stop offset="0%" stop-color="#8b5cf6" stop-opacity="0.6"/>
      <stop offset="100%" stop-color="#8b5cf6" stop-opacity="0.1"/>
    </linearGradient>
    <filter id="glow"><feGaussianBlur stdDeviation="3" result="blur"/><feMerge><feMergeNode in="blur"/><feMergeNode in="SourceGraphic"/></feMerge></filter>
  </defs>
  <rect width="1200" height="630" fill="url(#bg)"/>
  <line x1="0" y1="0" x2="0" y2="630" stroke="#ffffff" stroke-opacity="0.03" stroke-width="0.5"/>
  <line x1="40" y1="0" x2="40" y2="630" stroke="#ffffff" stroke-opacity="0.03" stroke-width="0.5"/>
  <line x1="80" y1="0" x2="80" y2="630" stroke="#ffffff" stroke-opacity="0.03" stroke-width="0.5"/>
  <line x1="120" y1="0" x2="120" y2="630" stroke="#ffffff" stroke-opacity="0.03" stroke-width="0.5"/>
  <line x1="160" y1="0" x2="160" y2="630" stroke="#ffffff" stroke-opacity="0.03" stroke-width="0.5"/>
  <line x1="200" y1="0" x2="200" y2="630" stroke="#ffffff" stroke-opacity="0.03" stroke-width="0.5"/>
  <line x1="240" y1="0" x2="240" y2="630" stroke="#ffffff" stroke-opacity="0.03" stroke-width="0.5"/>
  <line x1="280" y1="0" x2="280" y2="630" stroke="#ffffff" stroke-opacity="0.03" stroke-width="0.5"/>
  <line x1="320" y1="0" x2="320" y2="630" stroke="#ffffff" stroke-opacity="0.03" stroke-width="0.5"/>
  <line x1="360" y1="0" x2="360" y2="630" stroke="#ffffff" stroke-opacity="0.03" stroke-width="0.5"/>
  <line x1="400" y1="0" x2="400" y2="630" stroke="#ffffff" stroke-opacity="0.03" stroke-width="0.5"/>
  <line x1="440" y1="0" x2="440" y2="630" stroke="#ffffff" stroke-opacity="0.03" stroke-width="0.5"/>
  <line x1="480" y1="0" x2="480" y2="630" stroke="#ffffff" stroke-opacity="0.03" stroke-width="0.5"/>
  <line x1="520" y1="0" x2="520" y2="630" stroke="#ffffff" stroke-opacity="0.03" stroke-width="0.5"/>
  <line x1="560" y1="0" x2="560" y2="630" stroke="#ffffff" stroke-opacity="0.03" stroke-width="0.5"/>
  <line x1="600" y1="0" x2="600" y2="630" stroke="#ffffff" stroke-opacity="0.03" stroke-width="0.5"/>
  <line x1="640" y1="0" x2="640" y2="630" stroke="#ffffff" stroke-opacity="0.03" stroke-width="0.5"/>
  <line x1="680" y1="0" x2="680" y2="630" stroke="#ffffff" stroke-opacity="0.03" stroke-width="0.5"/>
  <line x1="720" y1="0" x2="720" y2="630" stroke="#ffffff" stroke-opacity="0.03" stroke-width="0.5"/>
  <line x1="760" y1="0" x2="760" y2="630" stroke="#ffffff" stroke-opacity="0.03" stroke-width="0.5"/>
  <line x1="800" y1="0" x2="800" y2="630" stroke="#ffffff" stroke-opacity="0.03" stroke-width="0.5"/>
  <line x1="840" y1="0" x2="840" y2="630" stroke="#ffffff" stroke-opacity="0.03" stroke-width="0.5"/>
  <line x1="880" y1="0" x2="880" y2="630" stroke="#ffffff" stroke-opacity="0.03" stroke-width="0.5"/>
  <line x1="920" y1="0" x2="920" y2="630" stroke="#ffffff" stroke-opacity="0.03" stroke-width="0.5"/>
  <line x1="960" y1="0" x2="960" y2="630" stroke="#ffffff" stroke-opacity="0.03" stroke-width="0.5"/>
  <line x1="1000" y1="0" x2="1000" y2="630" stroke="#ffffff" stroke-opacity="0.03" stroke-width="0.5"/>
  <line x1="1040" y1="0" x2="1040" y2="630" stroke="#ffffff" stroke-opacity="0.03" stroke-width="0.5"/>
  <line x1="1080" y1="0" x2="1080" y2="630" stroke="#ffffff" stroke-opacity="0.03" stroke-width="0.5"/>
  <line x1="1120" y1="0" x2="1120" y2="630" stroke="#ffffff" stroke-opacity="0.03" stroke-width="0.5"/>
  <line x1="1160" y1="0" x2="1160" y2="630" stroke="#ffffff" stroke-opacity="0.03" stroke-width="0.5"/>
  <line x1="0" y1="0" x2="1200" y2="0" stroke="#ffffff" stroke-opacity="0.03" stroke-width="0.5"/>
  <line x1="0" y1="40" x2="1200" y2="40" stroke="#ffffff" stroke-opacity="0.03" stroke-width="0.5"/>
  <line x1="0" y1="80" x2="1200" y2="80" stroke="#ffffff" stroke-opacity="0.03" stroke-width="0.5"/>
  <line x1="0" y1="120" x2="1200" y2="120" stroke="#ffffff" stroke-opacity="0.03" stroke-width="0.5"/>
  <line x1="0" y1="160" x2="1200" y2="160" stroke="#ffffff" stroke-opacity="0.03" stroke-width="0.5"/>
  <line x1="0" y1="200" x2="1200" y2="200" stroke="#ffffff" stroke-opacity="0.03" stroke-width="0.5"/>
  <line x1="0" y1="240" x2="1200" y2="240" stroke="#ffffff" stroke-opacity="0.03" stroke-width="0.5"/>
  <line x1="0" y1="280" x2="1200" y2="280" stroke="#ffffff" stroke-opacity="0.03" stroke-width="0.5"/>
  <line x1="0" y1="320" x2="1200" y2="320" stroke="#ffffff" stroke-opacity="0.03" stroke-width="0.5"/>
  <line x1="0" y1="360" x2="1200" y2="360" stroke="#ffffff" stroke-opacity="0.03" stroke-width="0.5"/>
  <line x1="0" y1="400" x2="1200" y2="400" stroke="#ffffff" stroke-opacity="0.03" stroke-width="0.5"/>
  <line x1="0" y1="440" x2="1200" y2="440" stroke="#ffffff" stroke-opacity="0.03" stroke-width="0.5"/>
  <line x1="0" y1="480" x2="1200" y2="480" stroke="#ffffff" stroke-opacity="0.03" stroke-width="0.5"/>
  <line x1="0" y1="520" x2="1200" y2="520" stroke="#ffffff" stroke-opacity="0.03" stroke-width="0.5"/>
  <line x1="0" y1="560" x2="1200" y2="560" stroke="#ffffff" stroke-opacity="0.03" stroke-width="0.5"/>
  <line x1="0" y1="600" x2="1200" y2="600" stroke="#ffffff" stroke-opacity="0.03" stroke-width="0.5"/>
  <line x1="0" y1="630" x2="400" y2="0" stroke="#8b5cf6" stroke-opacity="0.1" stroke-width="1"/>
  <line x1="100" y1="630" x2="500" y2="0" stroke="#8b5cf6" stroke-opacity="0.07" stroke-width="1"/>
  <line x1="200" y1="630" x2="600" y2="0" stroke="#8b5cf6" stroke-opacity="0.04" stroke-width="1"/>
  <line x1="800" y1="630" x2="1200" y2="0" stroke="#8b5cf6" stroke-opacity="0.1" stroke-width="1"/>
  <line x1="900" y1="630" x2="1200" y2="100" stroke="#8b5cf6" stroke-opacity="0.07" stroke-width="1"/>
  <polygon points="171.7,87.5 171.7,112.5 150.0,125.0 128.3,112.5 128.3,87.5 150.0,75.0" fill="none" stroke="#8b5cf6" stroke-opacity="0.15" stroke-width="1"/>
  <polygon points="1071.7,137.5 1071.7,162.5 1050.0,175.0 1028.3,162.5 1028.3,137.5 1050.0,125.0" fill="none" stroke="#8b5cf6" stroke-opacity="0.15" stroke-width="1"/>
  <polygon points="121.7,487.5 121.7,512.5 100.0,525.0 78.3,512.5 78.3,487.5 100.0,475.0" fill="none" stroke="#8b5cf6" stroke-opacity="0.15" stroke-width="1"/>
  <polygon points="1121.7,467.5 1121.7,492.5 1100.0,505.0 1078.3,492.5 1078.3,467.5 1100.0,455.0" fill="none" stroke="#8b5cf6" stroke-opacity="0.15" stroke-width="1"/>
  <circle cx="300" cy="80" r="3" fill="#8b5cf6" fill-opacity="0.2"/>
  <circle cx="300" cy="80" r="1.5" fill="#8b5cf6" fill-opacity="0.4"/>
  <circle cx="900" cy="80" r="3" fill="#8b5cf6" fill-opacity="0.2"/>
  <circle cx="900" cy="80" r="1.5" fill="#8b5cf6" fill-opacity="0.4"/>
  <circle cx="50" cy="300" r="3" fill="#8b5cf6" fill-opacity="0.2"/>
  <circle cx="50" cy="300" r="1.5" fill="#8b5cf6" fill-opacity="0.4"/>
  <circle cx="1150" cy="300" r="3" fill="#8b5cf6" fill-opacity="0.2"/>
  <circle cx="1150" cy="300" r="1.5" fill="#8b5cf6" fill-opacity="0.4"/>
  <circle cx="300" cy="550" r="3" fill="#8b5cf6" fill-opacity="0.2"/>
  <circle cx="300" cy="550" r="1.5" fill="#8b5cf6" fill-opacity="0.4"/>
  <circle cx="900" cy="550" r="3" fill="#8b5cf6" fill-opacity="0.2"/>
  <circle cx="900" cy="550" r="1.5" fill="#8b5cf6" fill-opacity="0.4"/>
  <path d="M0,0 L80,0 L80,2 L2,2 L2,80 L0,80 Z" fill="#8b5cf6" fill-opacity="0.3"/>
  <path d="M1200,0 L1120,0 L1120,2 L1198,2 L1198,80 L1200,80 Z" fill="#8b5cf6" fill-opacity="0.3"/>
  <path d="M0,630 L80,630 L80,628 L2,628 L2,550 L0,550 Z" fill="#8b5cf6" fill-opacity="0.3"/>
  <path d="M1200,630 L1120,630 L1120,628 L1198,628 L1198,550 L1200,550 Z" fill="#8b5cf6" fill-opacity="0.3"/>
  <rect x="100" y="305" width="200" height="3" fill="url(#accent)" rx="1.5"/>
  <text x="600" y="270" text-anchor="middle" font-family="DejaVu Sans, Arial, sans-serif" font-size="36" font-weight="bold" fill="white" filter="url(#glow)">DNS Anycast</text>
  <text x="600" y="320" text-anchor="middle" font-family="DejaVu Sans, Arial, sans-serif" font-size="36" font-weight="bold" fill="white" filter="url(#glow)">&amp; AXFR Governance</text>
  <text x="600" y="390" text-anchor="middle" font-family="DejaVu Sans, Arial, sans-serif" font-size="16" fill="#a0a0c0">Authoritative Server Deployment &amp; Zone Transfer Security</text>
  <rect x="390" y="440" width="128" height="28" rx="14" fill="#8b5cf6" fill-opacity="0.15" stroke="#8b5cf6" stroke-opacity="0.3" stroke-width="1"/>
  <text x="454" y="459" text-anchor="middle" font-family="DejaVu Sans, Arial, sans-serif" font-size="12" fill="#8b5cf6">DNS Security</text>
  <rect x="540" y="440" width="128" height="28" rx="14" fill="#8b5cf6" fill-opacity="0.15" stroke="#8b5cf6" stroke-opacity="0.3" stroke-width="1"/>
  <text x="604" y="459" text-anchor="middle" font-family="DejaVu Sans, Arial, sans-serif" font-size="12" fill="#8b5cf6">AXFR Control</text>
  <rect x="690" y="440" width="146" height="28" rx="14" fill="#8b5cf6" fill-opacity="0.15" stroke="#8b5cf6" stroke-opacity="0.3" stroke-width="1"/>
  <text x="763" y="459" text-anchor="middle" font-family="DejaVu Sans, Arial, sans-serif" font-size="12" fill="#8b5cf6">NIST SP 800-81</text>
  <text x="1160" y="610" text-anchor="end" font-family="DejaVu Sans, Arial, sans-serif" font-size="12" fill="#606080">miamioh.edu.pl</text>
</svg>