<?xml version="1.0" encoding="UTF-8"?>
<svg xmlns="http://www.w3.org/2000/svg" viewBox="0 0 1200 630" width="1200" height="630">
  <defs>
    <linearGradient id="bg" x1="0%" y1="0%" x2="100%" y2="100%">
      <stop offset="0%" stop-color="#0d0a1a"/>
      <stop offset="100%" stop-color="#1a1040"/>
    </linearGradient>
    <filter id="glow">
      <feGaussianBlur stdDeviation="3" result="blur"/>
      <feMerge>
        <feMergeNode in="blur"/>
        <feMergeNode in="SourceGraphic"/>
      </feMerge>
    </filter>
  </defs>
  
  <!-- Background gradient -->
  <rect width="1200" height="630" fill="url(#bg)"/>
  
  <!-- Grid -->
    <line x1="0" y1="0" x2="0" y2="630" stroke="#2a1a55" stroke-width="0.5" opacity="0.3"/>
    <line x1="40" y1="0" x2="40" y2="630" stroke="#2a1a55" stroke-width="0.5" opacity="0.3"/>
    <line x1="80" y1="0" x2="80" y2="630" stroke="#2a1a55" stroke-width="0.5" opacity="0.3"/>
    <line x1="120" y1="0" x2="120" y2="630" stroke="#2a1a55" stroke-width="0.5" opacity="0.3"/>
    <line x1="160" y1="0" x2="160" y2="630" stroke="#2a1a55" stroke-width="0.5" opacity="0.3"/>
    <line x1="200" y1="0" x2="200" y2="630" stroke="#2a1a55" stroke-width="0.5" opacity="0.3"/>
    <line x1="240" y1="0" x2="240" y2="630" stroke="#2a1a55" stroke-width="0.5" opacity="0.3"/>
    <line x1="280" y1="0" x2="280" y2="630" stroke="#2a1a55" stroke-width="0.5" opacity="0.3"/>
    <line x1="320" y1="0" x2="320" y2="630" stroke="#2a1a55" stroke-width="0.5" opacity="0.3"/>
    <line x1="360" y1="0" x2="360" y2="630" stroke="#2a1a55" stroke-width="0.5" opacity="0.3"/>
    <line x1="400" y1="0" x2="400" y2="630" stroke="#2a1a55" stroke-width="0.5" opacity="0.3"/>
    <line x1="440" y1="0" x2="440" y2="630" stroke="#2a1a55" stroke-width="0.5" opacity="0.3"/>
    <line x1="480" y1="0" x2="480" y2="630" stroke="#2a1a55" stroke-width="0.5" opacity="0.3"/>
    <line x1="520" y1="0" x2="520" y2="630" stroke="#2a1a55" stroke-width="0.5" opacity="0.3"/>
    <line x1="560" y1="0" x2="560" y2="630" stroke="#2a1a55" stroke-width="0.5" opacity="0.3"/>
    <line x1="600" y1="0" x2="600" y2="630" stroke="#2a1a55" stroke-width="0.5" opacity="0.3"/>
    <line x1="640" y1="0" x2="640" y2="630" stroke="#2a1a55" stroke-width="0.5" opacity="0.3"/>
    <line x1="680" y1="0" x2="680" y2="630" stroke="#2a1a55" stroke-width="0.5" opacity="0.3"/>
    <line x1="720" y1="0" x2="720" y2="630" stroke="#2a1a55" stroke-width="0.5" opacity="0.3"/>
    <line x1="760" y1="0" x2="760" y2="630" stroke="#2a1a55" stroke-width="0.5" opacity="0.3"/>
    <line x1="800" y1="0" x2="800" y2="630" stroke="#2a1a55" stroke-width="0.5" opacity="0.3"/>
    <line x1="840" y1="0" x2="840" y2="630" stroke="#2a1a55" stroke-width="0.5" opacity="0.3"/>
    <line x1="880" y1="0" x2="880" y2="630" stroke="#2a1a55" stroke-width="0.5" opacity="0.3"/>
    <line x1="920" y1="0" x2="920" y2="630" stroke="#2a1a55" stroke-width="0.5" opacity="0.3"/>
    <line x1="960" y1="0" x2="960" y2="630" stroke="#2a1a55" stroke-width="0.5" opacity="0.3"/>
    <line x1="1000" y1="0" x2="1000" y2="630" stroke="#2a1a55" stroke-width="0.5" opacity="0.3"/>
    <line x1="1040" y1="0" x2="1040" y2="630" stroke="#2a1a55" stroke-width="0.5" opacity="0.3"/>
    <line x1="1080" y1="0" x2="1080" y2="630" stroke="#2a1a55" stroke-width="0.5" opacity="0.3"/>
    <line x1="1120" y1="0" x2="1120" y2="630" stroke="#2a1a55" stroke-width="0.5" opacity="0.3"/>
    <line x1="1160" y1="0" x2="1160" y2="630" stroke="#2a1a55" stroke-width="0.5" opacity="0.3"/>
    <line x1="1200" y1="0" x2="1200" y2="630" stroke="#2a1a55" stroke-width="0.5" opacity="0.3"/>
    <line x1="0" y1="0" x2="1200" y2="0" stroke="#2a1a55" stroke-width="0.5" opacity="0.3"/>
    <line x1="0" y1="40" x2="1200" y2="40" stroke="#2a1a55" stroke-width="0.5" opacity="0.3"/>
    <line x1="0" y1="80" x2="1200" y2="80" stroke="#2a1a55" stroke-width="0.5" opacity="0.3"/>
    <line x1="0" y1="120" x2="1200" y2="120" stroke="#2a1a55" stroke-width="0.5" opacity="0.3"/>
    <line x1="0" y1="160" x2="1200" y2="160" stroke="#2a1a55" stroke-width="0.5" opacity="0.3"/>
    <line x1="0" y1="200" x2="1200" y2="200" stroke="#2a1a55" stroke-width="0.5" opacity="0.3"/>
    <line x1="0" y1="240" x2="1200" y2="240" stroke="#2a1a55" stroke-width="0.5" opacity="0.3"/>
    <line x1="0" y1="280" x2="1200" y2="280" stroke="#2a1a55" stroke-width="0.5" opacity="0.3"/>
    <line x1="0" y1="320" x2="1200" y2="320" stroke="#2a1a55" stroke-width="0.5" opacity="0.3"/>
    <line x1="0" y1="360" x2="1200" y2="360" stroke="#2a1a55" stroke-width="0.5" opacity="0.3"/>
    <line x1="0" y1="400" x2="1200" y2="400" stroke="#2a1a55" stroke-width="0.5" opacity="0.3"/>
    <line x1="0" y1="440" x2="1200" y2="440" stroke="#2a1a55" stroke-width="0.5" opacity="0.3"/>
    <line x1="0" y1="480" x2="1200" y2="480" stroke="#2a1a55" stroke-width="0.5" opacity="0.3"/>
    <line x1="0" y1="520" x2="1200" y2="520" stroke="#2a1a55" stroke-width="0.5" opacity="0.3"/>
    <line x1="0" y1="560" x2="1200" y2="560" stroke="#2a1a55" stroke-width="0.5" opacity="0.3"/>
    <line x1="0" y1="600" x2="1200" y2="600" stroke="#2a1a55" stroke-width="0.5" opacity="0.3"/>

  
  <!-- Diagonal lines -->

    <line x1="0" y1="0" x2="400" y2="630" stroke="#7b68ee" stroke-width="1" opacity="0.15"/>
    <line x1="200" y1="0" x2="600" y2="630" stroke="#7b68ee" stroke-width="1" opacity="0.1"/>
    <line x1="800" y1="0" x2="1200" y2="630" stroke="#7b68ee" stroke-width="1" opacity="0.15"/>
    <line x1="1000" y1="0" x2="600" y2="630" stroke="#7b68ee" stroke-width="1" opacity="0.1"/>
    
  
  <!-- Hexagons -->
    <polygon points="121.7,87.5 121.7,112.5 100.0,125.0 78.3,112.5 78.3,87.5 100.0,75.0" fill="none" stroke="#7b68ee" stroke-width="1.5" opacity="0.3"/>
    <polygon points="1071.7,67.5 1071.7,92.5 1050.0,105.0 1028.3,92.5 1028.3,67.5 1050.0,55.0" fill="none" stroke="#7b68ee" stroke-width="1.5" opacity="0.3"/>
    <polygon points="221.7,487.5 221.7,512.5 200.0,525.0 178.3,512.5 178.3,487.5 200.0,475.0" fill="none" stroke="#7b68ee" stroke-width="1.5" opacity="0.3"/>
    <polygon points="1021.7,467.5 1021.7,492.5 1000.0,505.0 978.3,492.5 978.3,467.5 1000.0,455.0" fill="none" stroke="#7b68ee" stroke-width="1.5" opacity="0.3"/>
    <polygon points="621.7,547.5 621.7,572.5 600.0,585.0 578.3,572.5 578.3,547.5 600.0,535.0" fill="none" stroke="#7b68ee" stroke-width="1.5" opacity="0.3"/>

  
  <!-- Circuit board -->
    <path d="M50,300 L150,300 L150,200 L250,200" fill="none" stroke="#9370db" stroke-width="1.5" opacity="0.2"/>
    <path d="M950,400 L1050,400 L1050,300 L1150,300" fill="none" stroke="#9370db" stroke-width="1.5" opacity="0.2"/>
    <path d="M100,150 L200,150 L200,100" fill="none" stroke="#9370db" stroke-width="1.5" opacity="0.2"/>
    <path d="M1000,500 L1100,500 L1100,550" fill="none" stroke="#9370db" stroke-width="1.5" opacity="0.2"/>

  
  <!-- Corner decorations -->

    <path d="M0,0 L80,0 L80,5 L5,5 L5,80 L0,80 Z" fill="#7b68ee" opacity="0.4"/>
    <path d="M1200,0 L1120,0 L1120,5 L1195,5 L1195,80 L1200,80 Z" fill="#7b68ee" opacity="0.4"/>
    <path d="M0,630 L80,630 L80,625 L5,625 L5,550 L0,550 Z" fill="#7b68ee" opacity="0.4"/>
    <path d="M1200,630 L1120,630 L1120,625 L1195,625 L1195,550 L1200,550 Z" fill="#7b68ee" opacity="0.4"/>
    
  
  <!-- Crypto icons -->
    <circle cx="180" cy="80" r="15" fill="none" stroke="#7b68ee" stroke-width="1.5" opacity="0.25"/>
    <circle cx="180" cy="80" r="10" fill="#7b68ee" opacity="0.08"/>
    <circle cx="1020" cy="550" r="15" fill="none" stroke="#7b68ee" stroke-width="1.5" opacity="0.25"/>
    <circle cx="1020" cy="550" r="10" fill="#7b68ee" opacity="0.08"/>
    <circle cx="80" cy="480" r="12" fill="none" stroke="#7b68ee" stroke-width="1.5" opacity="0.25"/>
    <circle cx="80" cy="480" r="7" fill="#7b68ee" opacity="0.08"/>
    <circle cx="1120" cy="120" r="12" fill="none" stroke="#7b68ee" stroke-width="1.5" opacity="0.25"/>
    <circle cx="1120" cy="120" r="7" fill="#7b68ee" opacity="0.08"/>

  
  <!-- Title text with shadow -->
  <g filter="url(#glow)">
    <text x="600" y="280" font-family="DejaVu Sans, Arial, sans-serif" font-size="42" font-weight="bold" fill="white" text-anchor="middle">DNS RPZ Deployment Governance</text>

  </g>
  
  <!-- Subtitle -->
  <text x="600" y="380" font-family="DejaVu Sans, Arial, sans-serif" font-size="18" fill="#7b68ee" text-anchor="middle" opacity="0.8">Web3 Domain Institute | DNS Security Research</text>
  
  <!-- Bottom bar -->
  <rect x="400" y="580" width="400" height="2" fill="#7b68ee" opacity="0.4" rx="1"/>
</svg>