<?xml version="1.0" encoding="UTF-8"?>
<svg width="1200" height="630" xmlns="http://www.w3.org/2000/svg">
  <!-- 背景 -->
  <defs>
    <linearGradient id="bgGradient" x1="0%" y1="0%" x2="100%" y2="100%">
      <stop offset="0%" style="stop-color:#1a1a2e;stop-opacity:1" />
      <stop offset="100%" style="stop-color:#16213e;stop-opacity:1" />
    </linearGradient>
    <pattern id="gridPattern" width="40" height="40" patternUnits="userSpaceOnUse">
      <path d="M 40 0 L 0 0 0 40" fill="none" stroke="#2a2a4e" stroke-width="1"/>
    </pattern>
    <filter id="glow">
      <feGaussianBlur stdDeviation="3" result="coloredBlur"/>
      <feMerge>
        <feMergeNode in="coloredBlur"/>
        <feMergeNode in="SourceGraphic"/>
      </feMerge>
    </filter>
  </defs>
  
  <!-- 背景层 -->
  <rect width="1200" height="630" fill="url(#bgGradient)"/>
  <rect width="1200" height="630" fill="url(#gridPattern)"/>
  
  <!-- 加密货币图案 - 比特币 -->
  <g transform="translate(100, 100) scale(3)">
    <circle cx="0" cy="0" r="50" fill="#f7931a" opacity="0.2"/>
    <circle cx="0" cy="0" r="45" fill="none" stroke="#f7931a" stroke-width="3"/>
    <text x="0" y="18" font-family="Arial, sans-serif" font-size="40" font-weight="bold" fill="#f7931a" text-anchor="middle">₿</text>
  </g>
  
  <!-- 加密货币图案 - 以太坊 -->
  <g transform="translate(1000, 530) scale(2.5)">
    <polygon points="0,-40 30,10 0,25 -30,10" fill="#627eea" opacity="0.3"/>
    <polygon points="0,-40 30,10 0,25 -30,10" fill="none" stroke="#627eea" stroke-width="2"/>
  </g>
  
  <!-- 对角线装饰 -->
  <line x1="0" y1="0" x2="1200" y2="630" stroke="#00d4ff" stroke-width="2" opacity="0.3"/>
  <line x1="1200" y1="0" x2="0" y2="630" stroke="#00d4ff" stroke-width="2" opacity="0.3"/>
  
  <!-- 标题文字（居中） -->
  <text x="600" y="280" font-family="Arial, sans-serif" font-size="48" font-weight="bold" fill="#ffffff" text-anchor="middle" filter="url(#glow)">
    Domain Name Basics: DNS Hierarchy, Registration, and Managem
  </text>
  
  <!-- 描述文字 -->
  <text x="600" y="340" font-family="Arial, sans-serif" font-size="28" fill="#a0a0c0" text-anchor="middle">
    An introductory course covering domain name fundamentals, the DNS hierarchy, ICA...
  </text>
  
  <!-- 关键词标签 -->
  <g transform="translate(600, 420)">
    <rect x="-120" y="-20" width="240" height="40" rx="20" fill="#00d4ff" opacity="0.2"/>
    <rect x="-120" y="-20" width="240" height="40" rx="20" fill="none" stroke="#00d4ff" stroke-width="2"/>
    <text x="0" y="8" font-family="Arial, sans-serif" font-size="20" fill="#00d4ff" text-anchor="middle">USDT 购买域名</text>
  </g>
  
  <!-- 底部网站域名 -->
  <text x="1150" y="590" font-family="Arial, sans-serif" font-size="24" fill="#00d4ff" text-anchor="end" font-weight="bold">
    miamioh.edu.pl
  </text>
  
  <!-- 角落装饰 -->
  <circle cx="1150" cy="50" r="8" fill="#00d4ff" opacity="0.6"/>
  <circle cx="50" cy="580" r="6" fill="#f7931a" opacity="0.6"/>
</svg>