<svg viewBox="0 0 1200 630" xmlns="http://www.w3.org/2000/svg">
  <defs>
    <linearGradient id="bg2" x1="0%" y1="0%" x2="100%" y2="100%">
      <stop offset="0%" stop-color="#0a0a1a"/>
      <stop offset="50%" stop-color="#1a1a3e"/>
      <stop offset="100%" stop-color="#0f1f3d"/>
    </linearGradient>
  </defs>
  <rect width="1200" height="630" fill="url(#bg2)"/>
  <g stroke="#1e3a5f" stroke-width="0.5">
    <line x1="0" y1="0" x2="1200" y2="630" stroke="url(#line)" stroke-width="2"/>
    <line x1="1200" y1="0" x2="0" y2="630" stroke="url(#line)" stroke-width="2"/>
  </g>
  <g stroke="#1e3a5f" stroke-width="0.5">
    <line x1="0" y1="30" x2="1200" y2="30"/><line x1="0" y1="90" x2="1200" y2="90"/>
    <line x1="0" y1="150" x2="1200" y2="150"/><line x1="0" y1="210" x2="1200" y2="210"/>
    <line x1="0" y1="270" x2="1200" y2="270"/><line x1="0" y1="330" x2="1200" y2="330"/>
    <line x1="0" y1="390" x2="1200" y2="390"/><line x1="0" y1="450" x2="1200" y2="450"/>
    <line x1="0" y1="510" x2="1200" y2="510"/><line x1="0" y1="570" x2="1200" y2="570"/>
    <line x1="60" y1="0" x2="60" y2="630"/><line x1="180" y1="0" x2="180" y2="630"/>
    <line x1="300" y1="0" x2="300" y2="630"/><line x1="420" y1="0" x2="420" y2="630"/>
    <line x1="540" y1="0" x2="540" y2="630"/><line x1="660" y1="0" x2="660" y2="630"/>
    <line x1="780" y1="0" x2="780" y2="630"/><line x1="900" y1="0" x2="900" y2="630"/>
    <line x1="1020" y1="0" x2="1020" y2="630"/><line x1="1140" y1="0" x2="1140" y2="630"/>
  </g>
  <polygon points="950,315 1000,270 1050,315 1050,365 1000,410 950,365" fill="none" stroke="#00d4ff" stroke-width="1.5" opacity="0.6"/>
  <polygon points="150,315 200,270 250,315 250,365 200,410 150,365" fill="none" stroke="#00d4ff" stroke-width="1.5" opacity="0.6"/>
  <circle cx="600" cy="315" r="80" fill="none" stroke="#00d4ff" stroke-width="1" opacity="0.3"/>
  <circle cx="600" cy="315" r="120" fill="none" stroke="#00d4ff" stroke-width="0.5" opacity="0.2"/>
  <!-- Globe icon -->
  <circle cx="600" cy="300" r="40" fill="none" stroke="#00d4ff" stroke-width="2" opacity="0.7"/>
  <ellipse cx="600" cy="300" rx="20" ry="40" fill="none" stroke="#00d4ff" stroke-width="1.5" opacity="0.5"/>
  <line x1="560" y1="300" x2="640" y2="300" stroke="#00d4ff" stroke-width="1" opacity="0.5"/>
  <line x1="560" y1="280" x2="640" y2="280" stroke="#00d4ff" stroke-width="1" opacity="0.3"/>
  <line x1="560" y1="320" x2="640" y2="320" stroke="#00d4ff" stroke-width="1" opacity="0.3"/>
  <text x="600" y="420" font-family="Arial Black, sans-serif" font-size="26" fill="#ffffff" text-anchor="middle" font-weight="bold">UDRP Arbitration &</text>
  <text x="600" y="455" font-family="Arial Black, sans-serif" font-size="26" fill="#ffffff" text-anchor="middle" font-weight="bold">Cross-Border Compliance</text>
  <rect x="450" y="480" width="130" height="32" rx="16" fill="#00d4ff" opacity="0.15"/>
  <text x="515" y="502" font-family="Arial, sans-serif" font-size="14" fill="#00d4ff" text-anchor="middle">UDRP Policy</text>
  <rect x="595" y="480" width="130" height="32" rx="16" fill="#00d4ff" opacity="0.15"/>
  <text x="660" y="502" font-family="Arial, sans-serif" font-size="14" fill="#00d4ff" text-anchor="middle">GDPR Protection</text>
  <rect x="740" y="480" width="130" height="32" rx="16" fill="#00d4ff" opacity="0.15"/>
  <text x="805" y="502" font-family="Arial, sans-serif" font-size="14" fill="#00d4ff" text-anchor="middle">ICANN RAA</text>
  <text x="1140" y="610" font-family="Arial, sans-serif" font-size="12" fill="#556677" text-anchor="end">miamioh.edu.pl</text>
</svg>